# xmcd
#
# Track frame offsets:
#	150
#	14230
#	28891
#	49296
#	61485
#	74282
#	95291
#
# Disc length: 1495 seconds
#
# Revision: 0
# Processed by: cddbd v1.5.2PL0 Copyright (c) Steve Scherf et al.
# Submitted via: EasyCDDAExtractor 10.2.0.1
#
DISCID=6405d507
DTITLE=Various Artist - GCN Radio Complilation
DYEAR=2003
DGENRE=Gospel
TTITLE0=Stella Parton - Amazing Grace
TTITLE1=The Hemphills - I've Already Tried
TTITLE2=Jody Miller - Higher Than I've Ever Been
TTITLE3=Jimmy Snow - Tell The World
TTITLE4=Ed Crawford - Walk Around me Jesus
TTITLE5=Danny Jones - Run
TTITLE6=Pam Seaman - If We Ever Needed
EXTD=
EXTT0=
EXTT1=
EXTT2=
EXTT3=
EXTT4=
EXTT5=
EXTT6=
PLAYORDER=
